PathFileType	4	(X/Y/Z)	/Users/itak/Documents/Research/Walk-IL/dataset/trc/00481_00167.trc
DataRate	CameraRate	NumFrames	NumMarkers	Units	OrigDataRate	OrigDataStartFrame	OrigNumFrames
100.000000	100.000000	4	53	mm	100.000000	474	632
Frame#	Time	RPSI			LPSI			L3			STRN			T10			C7			CLAV			RBAK			LBAK			LSHO			LUPA			LAEL			LAOL			LWTS			LWPS			LFRA			LIFD			LHPS			LHTS			RSHO			RUPA			RAEL			RAOL			RWTS			RWPS			RFRA			RIFD			RHTS			RHPS			RBHD			LFHD			RFHD			LBHD			LHIP			RHIP			RASI			LASI			LKNE			LTHI			LANK			LTIP			LTOE			LMT1			LMT5			LHEE			RKNE			RTHI			RANK			RTIP			RTOE			RMT1			RMT5			RHEE			
		X1	Y1	Z1	X2	Y2	Z2	X3	Y3	Z3	X4	Y4	Z4	X5	Y5	Z5	X6	Y6	Z6	X7	Y7	Z7	X8	Y8	Z8	X9	Y9	Z9	X10	Y10	Z10	X11	Y11	Z11	X12	Y12	Z12	X13	Y13	Z13	X14	Y14	Z14	X15	Y15	Z15	X16	Y16	Z16	X17	Y17	Z17	X18	Y18	Z18	X19	Y19	Z19	X20	Y20	Z20	X21	Y21	Z21	X22	Y22	Z22	X23	Y23	Z23	X24	Y24	Z24	X25	Y25	Z25	X26	Y26	Z26	X27	Y27	Z27	X28	Y28	Z28	X29	Y29	Z29	X30	Y30	Z30	X31	Y31	Z31	X32	Y32	Z32	X33	Y33	Z33	X34	Y34	Z34	X35	Y35	Z35	X36	Y36	Z36	X37	Y37	Z37	X38	Y38	Z38	X39	Y39	Z39	X40	Y40	Z40	X41	Y41	Z41	X42	Y42	Z42	X43	Y43	Z43	X44	Y44	Z44	X45	Y45	Z45	X46	Y46	Z46	X47	Y47	Z47	X48	Y48	Z48	X49	Y49	Z49	X50	Y50	Z50	X51	Y51	Z51	X52	Y52	Z52	X53	Y53	Z53	

475	4.74	83.56781005859375	932.69482421875	-514.29296875	78.25161743164062	918.7123413085938	-371.5468139648438	66.83294677734375	1029.695434570312	-467.5864868164062	-211.8768310546875	1225.42529296875	-426.9520263671875	70.13446044921875	1153.497314453125	-468.3523559570312	4.36750316619873	1423.547607421875	-464.4580993652344	-172.2844848632812	1337.426147460938	-422.7897033691406	52.11631774902344	1306.9033203125	-569.001220703125	55.77608871459961	1368.871948242188	-381.0000305175781	-24.62930870056152	1385.927734375	-282.1521301269531	23.56775856018066	1273.427856445312	-193.8879089355469	38.11631393432617	1066.729614257812	-139.9102172851562	81.14554595947266	1044.771118164062	-231.2180633544922	-60.40189361572266	869.2916870117188	-122.0147476196289	7.381439685821533	854.1195068359375	-94.77695465087891	22.18446731567383	981.4617919921875	-113.6194381713867	-64.34661865234375	712.6382446289062	-92.33983612060547	-0.08337557315826416	779.1045532226562	-82.54740142822266	-72.39250183105469	787.9555053710938	-96.17925262451172	-80.42258453369141	1404.418334960938	-609.8346557617188	-68.87261962890625	1354.510986328125	-692.9321899414062	-66.73208618164062	1082.605712890625	-790.030029296875	-12.01761817932129	1063.392578125	-755.0767822265625	-147.7732849121094	861.9898071289062	-776.8466186523438	-83.57546997070312	866.6821899414062	-840.5012817382812	-66.43032836914062	1026.829345703125	-809.8010864257812	-130.8602600097656	711.1575927734375	-816.0447387695312	-149.25732421875	767.23876953125	-807.0364990234375	-89.40677642822266	780.0039672851562	-853.1488037109375	-144.7221374511719	1622.879516601562	-510.0973205566406	-235.3673400878906	1589.586547851562	-327.8758850097656	-267.9249267578125	1597.812133789062	-454.0634460449219	-86.70800018310547	1620.986572265625	-342.4227600097656	-80.46483612060547	832.6126098632812	-258.4387817382812	-34.52287292480469	832.3043212890625	-660.5403442382812	-136.3720855712891	876.2457885742188	-599.245361328125	-155.4863586425781	880.350341796875	-349.2251281738281	-308.6219787597656	481.1817321777344	-291.5005493164062	-251.8960266113281	625.6510009765625	-277.0794982910156	-376.2714233398438	61.74964904785156	-272.3247680664062	-348.7730102539062	333.4116516113281	-268.1051940917969	-582.3333129882812	157.3058624267578	-333.0030517578125	-519.6995239257812	123.727912902832	-363.9247436523438	-509.8464050292969	123.9173355102539	-253.7221221923828	-336.2492980957031	48.45326995849609	-337.4126892089844	-62.4258918762207	437.4053039550781	-602.4738159179688	-83.51485443115234	695.5914306640625	-653.6795043945312	97.45503997802734	48.35723876953125	-634.1369018554688	-31.41214179992676	289.9067077636719	-608.8317260742188	-84.80226898193359	46.95699310302734	-511.7243041992188	-14.6367654800415	43.22069931030273	-502.7713317871094	-32.10689926147461	59.31588745117188	-605.1246337890625	173.4754180908203	34.25725173950195	-615.2286376953125	
476	4.75	74.27017974853516	931.618896484375	-512.7738037109375	67.83322143554688	917.1593627929688	-370.1475524902344	57.08441543579102	1027.802001953125	-465.7028503417969	-220.63330078125	1223.771850585938	-424.8340148925781	61.36338043212891	1151.6962890625	-465.8367309570312	-4.112402439117432	1421.7880859375	-460.8004150390625	-180.8175201416016	1335.602783203125	-419.7546997070312	43.66994476318359	1305.743041992188	-565.927001953125	47.10846710205078	1366.508666992188	-377.8182983398438	-33.09931945800781	1383.248168945312	-278.8364868164062	15.94810485839844	1270.751708984375	-191.1533966064453	32.95483016967773	1064.10009765625	-138.1045837402344	74.96046447753906	1043.010375976562	-230.1131896972656	-60.71511077880859	864.25439453125	-118.6451873779297	8.085975646972656	850.6190795898438	-93.21945953369141	19.30355644226074	978.4537353515625	-111.7817916870117	-59.96203231811523	707.385009765625	-89.79148864746094	2.823378324508667	775.3717041015625	-81.24123382568359	-69.99699401855469	782.5381469726562	-93.05635833740234	-88.71080017089844	1403.70654296875	-606.2582397460938	-77.22256469726562	1354.246337890625	-689.6871948242188	-76.65944671630859	1082.711547851562	-788.3287963867188	-22.13164138793945	1062.640869140625	-753.6287231445312	-160.8337860107422	863.349853515625	-775.301025390625	-96.67509460449219	867.1206665039062	-838.9803466796875	-77.19962310791016	1026.928344726562	-808.2139892578125	-146.6458435058594	712.3971557617188	-814.9317016601562	-164.0944366455078	768.7232055664062	-805.7252807617188	-104.1073837280273	780.5919189453125	-851.8502807617188	-153.5044708251953	1621.196533203125	-505.4735107421875	-243.6796417236328	1587.28857421875	-323.1406860351562	-276.5599975585938	1595.875854492188	-449.2145385742188	-95.06884002685547	1618.8359375	-337.9674377441406	-91.61563873291016	831.3456420898438	-258.3264465332031	-42.01306915283203	831.52294921875	-660.59033203125	-144.6857757568359	874.7720947265625	-599.8588256835938	-165.9846038818359	878.5238037109375	-349.9807739257812	-318.93798828125	480.5545959472656	-290.3056945800781	-261.6617126464844	624.2989501953125	-276.8860473632812	-401.4524230957031	64.37680816650391	-268.0980224609375	-364.7207336425781	335.0863037109375	-266.3945007324219	-603.3011474609375	165.3147125244141	-334.4308776855469	-540.8161010742188	129.5185699462891	-363.4640808105469	-533.559814453125	130.6694641113281	-253.2316436767578	-360.51025390625	49.13487243652344	-332.1388244628906	-65.54695129394531	436.1319580078125	-603.27685546875	-89.85885620117188	694.2779541015625	-654.0073852539062	97.47183990478516	48.28925704956055	-634.131103515625	-33.27640914916992	288.8850402832031	-609.3895263671875	-85.03652954101562	46.87112045288086	-512.081787109375	-14.83150577545166	43.24702835083008	-502.9175720214844	-32.37546157836914	58.78984069824219	-605.463134765625	173.4918670654297	34.40693664550781	-615.1053466796875	
477	4.76	64.84700775146484	930.3837280273438	-511.2256164550781	57.32757949829102	915.48583984375	-368.7174072265625	47.20685195922852	1025.7607421875	-463.7572326660156	-229.5596618652344	1221.943481445312	-422.67041015625	52.51318740844727	1149.759399414062	-463.1925659179688	-12.77461433410645	1419.866455078125	-456.9743957519531	-189.5348205566406	1333.608764648438	-416.6599731445312	35.11343383789062	1304.439697265625	-562.6878051757812	38.22164535522461	1363.992309570312	-374.4066467285156	-41.86572265625	1380.356567382812	-275.3471069335938	7.947802543640137	1267.81298828125	-188.2558441162109	27.37352180480957	1061.257202148438	-136.2187194824219	68.41058349609375	1041.075805664062	-228.8895263671875	-61.11716461181641	859.05126953125	-115.3700408935547	8.619773864746094	847.0219116210938	-91.77914428710938	16.0718879699707	975.275146484375	-109.9337615966797	-55.53218460083008	702.0460815429688	-87.43748474121094	5.647603034973145	771.5946044921875	-80.150634765625	-67.57805633544922	776.9618530273438	-90.10208892822266	-97.11864471435547	1402.84912109375	-602.5740356445312	-85.65513610839844	1353.8203125	-686.33056640625	-86.59580993652344	1082.614135742188	-786.4476928710938	-32.27051162719727	1061.706176757812	-751.9876098632812	-174.0223999023438	864.6353149414062	-773.490966796875	-109.8883590698242	867.40478515625	-837.1902465820312	-87.96815490722656	1026.853271484375	-806.4393920898438	-162.6555023193359	713.63330078125	-813.5277709960938	-179.2596893310547	770.2095947265625	-803.9931030273438	-118.9606323242188	781.0835571289062	-850.24609375	-162.4339447021484	1619.347290039062	-500.74169921875	-252.1551208496094	1584.84619140625	-318.2919921875	-285.3540954589844	1593.783569335938	-444.2547302246094	-103.5873260498047	1616.524291992188	-333.4037475585938	-102.8548278808594	830.1000366210938	-258.1290588378906	-49.63482666015625	830.6123657226562	-660.576171875	-153.1275329589844	873.1837768554688	-600.3757934570312	-176.5590057373047	876.6708374023438	-350.6358337402344	-329.4790344238281	480.0159912109375	-288.9765319824219	-271.7046508789062	623.0753784179688	-276.5740661621094	-425.0625305175781	67.12770080566406	-263.6518249511719	-380.2308044433594	336.7733764648438	-264.5672607421875	-622.7191772460938	172.4102478027344	-336.0983276367188	-560.3088989257812	134.6407775878906	-363.0558471679688	-555.8446044921875	136.8912506103516	-252.8377075195312	-383.0349731445312	50.06887054443359	-326.5019226074219	-68.81221771240234	434.7853088378906	-604.0225830078125	-96.35527801513672	692.8523559570312	-654.2499389648438	97.45070648193359	48.23995590209961	-634.1270141601562	-35.24229431152344	287.8283996582031	-609.9009399414062	-85.30951690673828	46.7579231262207	-512.4627685546875	-15.0452299118042	43.26743698120117	-503.0709533691406	-32.74481964111328	58.16669845581055	-605.8084716796875	173.4847717285156	34.59795379638672	-614.97900390625	
478	4.77	55.32931900024414	928.9827270507812	-509.6682434082031	46.77259063720703	913.697265625	-367.2810668945312	37.23877716064453	1023.600158691406	-461.7804870605469	-238.6605072021484	1219.944580078125	-420.4402160644531	43.58779907226562	1147.701049804688	-460.4643249511719	-21.62708854675293	1417.790405273438	-452.981201171875	-198.4402465820312	1331.4482421875	-413.4930419921875	26.43792724609375	1303.007080078125	-559.2953491210938	29.10715103149414	1361.3359375	-370.7717895507812	-50.93405151367188	1377.26025390625	-271.6817016601562	-0.4505700469017029	1264.610717773438	-185.1952056884766	21.3463020324707	1058.206909179688	-134.2559051513672	61.48128128051758	1038.980224609375	-227.5449676513672	-61.6519660949707	853.7149047851562	-112.2218856811523	8.927206039428711	843.362060546875	-90.45683288574219	12.45738792419434	971.9384155273438	-108.0775756835938	-51.11475372314453	696.6788940429688	-85.29878997802734	8.318496704101562	767.8159790039062	-79.26480865478516	-65.20981597900391	771.2720336914062	-87.32447052001953	-105.6674194335938	1401.853759765625	-598.779541015625	-94.19332885742188	1353.241333007812	-682.85791015625	-96.54874420166016	1082.329467773438	-784.386962890625	-42.43711090087891	1060.607299804688	-750.154052734375	-187.3079071044922	865.846923828125	-771.4082641601562	-123.1970901489258	867.5447387695312	-835.1400756835938	-98.74045562744141	1026.610107421875	-804.4744873046875	-178.8690643310547	714.8785400390625	-811.8165283203125	-194.6610260009766	771.699951171875	-801.8695068359375	-133.9244537353516	781.484130859375	-848.3364868164062	-171.5197601318359	1617.3408203125	-495.8923034667969	-260.7989196777344	1582.2548828125	-313.31982421875	-294.3131408691406	1591.539916992188	-439.1749877929688	-112.2696838378906	1614.047973632812	-328.7200622558594	-114.146614074707	828.8827514648438	-257.8530578613281	-57.35833358764648	829.565673828125	-660.4999389648438	-161.6787872314453	871.4811401367188	-600.7902221679688	-187.2021331787109	874.8173217773438	-351.1707153320312	-340.2283630371094	479.5411987304688	-287.5185241699219	-282.0108642578125	621.9774780273438	-276.1588134765625	-447.0283203125	69.79129028320312	-258.9877319335938	-395.2313232421875	338.3594665527344	-262.5848693847656	-640.65576171875	178.4013061523438	-337.7362976074219	-578.2581176757812	138.9357757568359	-362.5228881835938	-576.6488037109375	142.3805999755859	-252.3663024902344	-403.7847595214844	51.0587272644043	-320.5421752929688	-72.22697448730469	433.3693237304688	-604.7122192382812	-102.9713439941406	691.3162231445312	-654.40380859375	97.38613128662109	48.21242904663086	-634.124267578125	-37.2984504699707	286.7270812988281	-610.3649291992188	-85.62313079833984	46.62226867675781	-512.8634033203125	-15.28287696838379	43.28039169311523	-503.2360229492188	-33.20898818969727	57.4430046081543	-606.1531372070312	173.451904296875	34.83722686767578	-614.8526611328125	
